<svg xmlns="http://www.w3.org/2000/svg" xmlns:xlink="http://www.w3.org/1999/xlink" viewBox="0 0 210 297" height="297mm" width="210mm"><defs><linearGradient id="a"><stop offset="0" stop-color="#2800f7"/><stop offset="1" stop-color="#ae9eff"/></linearGradient><linearGradient gradientUnits="userSpaceOnUse" y2="99.44" x2="120.43" y1="99.44" x1="23.101" id="g" xlink:href="#a"/></defs><path fill="none" d="M5.292 42.333h201.083v201.083H5.292z"/><g transform="translate(4.645 -2.086)"><use xlink:href="#b" transform="rotate(90 101.111 144.775)" width="100%" height="100%"/><use x="0" y="0" xlink:href="#b" id="c" transform="rotate(45 100.908 143.618)" width="100%" height="100%"/><use x="0" y="0" xlink:href="#b" id="d" transform="rotate(180 101.376 144.935)" width="100%" height="100%"/><use x="0" y="0" xlink:href="#c" id="e" transform="rotate(90 100.82 144.8)" width="100%" height="100%"/><use xlink:href="#d" transform="rotate(90 101.45 145.51)" width="100%" height="100%"/><use x="0" y="0" xlink:href="#e" id="f" transform="rotate(90 100.816 145.119)" width="100%" height="100%"/><use xlink:href="#f" transform="rotate(90 101.531 145.149)" width="100%" height="100%"/><path id="b" d="M120.253 111.425c.103.65.7 2.243-1.095 1.298-23.296-12.267-36.944-11.792-51.926-10.375-12.32 1.166-27.376 5.993-31.888 6.509-5.807.664-11.195-3.022-12.11-8.795-.916-5.773 3.011-11.262 8.794-12.11 10.71-1.572 22.523-2.958 33.923-1.416 23.61 3.194 40.495 11.274 52.554 22.374 1.52 1.399 1.644 1.86 1.748 2.515z" opacity="1" fill="url(#g)" fill-opacity="1" stroke-width=".07"/></g></svg>